<svg id="Layer_1" data-name="Layer 1" xmlns="http://www.w3.org/2000/svg" viewBox="0 0 359.34 89.09"><defs><style>.cls-1{fill:#4d8923;}.cls-2{fill:#131410;}</style></defs><title>zomchi-svg</title><path class="cls-1" d="M334,101.24a17.09,17.09,0,0,1,12.91-16.8l.06,0h0a16.62,16.62,0,0,1,8.05,0,19,19,0,0,0,17.78-5.11,30.72,30.72,0,1,0-36.74,48.5,16.92,16.92,0,0,0,2.4-4c2-4.48,1.07-9.59-1.64-13.67A16.4,16.4,0,0,1,334,101.24Z" transform="translate(-118.22 -42.62)"/><path class="cls-2" d="M201.05,70.24A30.74,30.74,0,1,0,231.79,101,30.77,30.77,0,0,0,201.05,70.24Zm0,47.8A17.07,17.07,0,1,1,218.12,101,17.08,17.08,0,0,1,201.05,118Z" transform="translate(-118.22 -42.62)"/><path class="cls-2" d="M291.69,70.06A22.64,22.64,0,0,0,276,76.55a22.64,22.64,0,0,0-15.72-6.49,21.72,21.72,0,0,0-13.07,4.35,13.59,13.59,0,0,0-9.76-4.12V118a13.67,13.67,0,0,0,13.67,13.67V93a9.19,9.19,0,0,1,7.13-9.09,9,9,0,0,1,10.92,8.84V118a13.67,13.67,0,0,0,13.66,13.67V93a9.19,9.19,0,0,1,7.13-9.08,9,9,0,0,1,10.92,8.83V118a13.67,13.67,0,0,0,13.67,13.67V93.56C314.53,81,304.26,70,291.69,70.06Z" transform="translate(-118.22 -42.62)"/><path class="cls-1" d="M449.45,79.78V118a13.67,13.67,0,0,0,13.67,13.67V93.45A13.67,13.67,0,0,0,449.45,79.78Z" transform="translate(-118.22 -42.62)"/><path class="cls-1" d="M404.08,70.37a28,28,0,0,0-12.57,4.38V56.29a13.67,13.67,0,0,0-13.67-13.67V118a13.67,13.67,0,0,0,13.67,13.67V99.28A15.39,15.39,0,0,1,408.91,84c7.75,1,13.35,8,13.35,15.78V118a13.67,13.67,0,0,0,13.67,13.67V99.28A29.08,29.08,0,0,0,404.08,70.37Z" transform="translate(-118.22 -42.62)"/><path class="cls-2" d="M165.36,87.4a10.06,10.06,0,0,0-7.11-17.16h-40A13.66,13.66,0,0,0,131.89,83.9h14.49a1.31,1.31,0,0,1,.93,2.23L121.64,111.8a11.66,11.66,0,0,0,8.24,19.91H168.3A13.67,13.67,0,0,0,154.64,118h-15.9a1.66,1.66,0,0,1-1.18-2.84Z" transform="translate(-118.22 -42.62)"/><path class="cls-1" d="M340.3,128.5c2.79-2.11,9.35-5.35,23.74-5.78,0,0-15.36,1.4-22.73,7.35a30.62,30.62,0,0,0,25.61-2.77,29.9,29.9,0,0,0,5.91-4.64C366.3,112.72,345.56,116.12,340.3,128.5Z" transform="translate(-118.22 -42.62)"/><path class="cls-1" d="M449.69,69.48c1.4-3.76,5.75-11,19.41-20.24,0,0-14,10.83-17.46,21.13A35.14,35.14,0,0,0,474.71,51.9a34.43,34.43,0,0,0,2.85-8.14C465.11,38.18,447.15,54.25,449.69,69.48Z" transform="translate(-118.22 -42.62)"/></svg>